<?xml version="1.0" encoding="utf-8"?>
<!-- Generator: Adobe Illustrator 18.1.1, SVG Export Plug-In . SVG Version: 6.00 Build 0)  -->
<svg version="1.1" id="Layer_1" xmlns="http://www.w3.org/2000/svg" xmlns:xlink="http://www.w3.org/1999/xlink" x="0px" y="0px"
	 viewBox="0 0 16 16" enable-background="new 0 0 16 16" xml:space="preserve">
<g>
	<path fill="#B0BEC6" d="M16,8c0,4.4-3.6,8-8,8c-4.4,0-8-3.6-8-8c0-4.4,3.6-8,8-8C12.4,0,16,3.6,16,8z M9.3,4.3C9.3,3.6,8.7,3,8,3
		C7.3,3,6.7,3.6,6.7,4.3c0,0.7,0.6,1.3,1.3,1.3C8.7,5.7,9.3,5.1,9.3,4.3z M9,7.3H7V13h2V7.3z"/>
</g>
</svg>
